<?xml version="1.0" encoding="UTF-8"?>
<svg version="1.1" xmlns="http://www.w3.org/2000/svg" width="1200" height="1200">
<path d="M0 0 C89.1 0 178.2 0 270 0 C270 5.28 270 10.56 270 16 C180.9 16 91.8 16 0 16 C0 10.72 0 5.44 0 0 Z " fill="#1B1B1B" transform="translate(690,562)"/>
<path d="M0 0 C89.1 0 178.2 0 270 0 C270 5.28 270 10.56 270 16 C180.9 16 91.8 16 0 16 C0 10.72 0 5.44 0 0 Z " fill="#1B1B1B" transform="translate(240,562)"/>
<path d="M0 0 C-1.42593906 4.43985572 -3.84576945 7.42080526 -7 10.75 C-7.48911865 11.27223145 -7.9782373 11.79446289 -8.48217773 12.33251953 C-20.97560462 25.51297408 -34.00236489 35.83973191 -52.87792969 36.42114258 C-65.23869559 36.50419225 -77.58848913 34.99253601 -89 30 C-89.23589844 30.81855469 -89.47179687 31.63710938 -89.71484375 32.48046875 C-91.2582197 36.70716095 -93.32207614 40.42272778 -95.5625 44.3125 C-95.97435547 45.04017578 -96.38621094 45.76785156 -96.81054688 46.51757812 C-99.84302286 51.84302286 -99.84302286 51.84302286 -101 53 C-104.375 53.3125 -104.375 53.3125 -108 53 C-110 51.3125 -110 51.3125 -111 49 C-110.14224831 38.6712401 -98.79732999 28.11576347 -92 21 C-91.37738281 20.30261719 -90.75476563 19.60523438 -90.11328125 18.88671875 C-77.0307862 4.76201236 -62.17894035 1.66689313 -44 0 C-55.97087667 -4.38815127 -69.47535054 -1.89369124 -80.890625 3.3203125 C-87.06426612 6.87306824 -92.5532259 11.43398086 -98 16 C-100.12085675 10.27507294 -97.09506434 4.3864041 -95 -1 C-90.58501951 -9.68670203 -83.64761004 -16.6272782 -74.515625 -20.21484375 C-48.14736588 -28.4446886 -20.45850378 -16.52417613 0 0 Z " fill="#1A1A1A" transform="translate(664,528)"/>
<path d="M0 0 C5.62585034 5.62585034 5.62585034 5.62585034 8.09375 9.01171875 C8.64297119 9.76098633 9.19219238 10.51025391 9.75805664 11.28222656 C10.6203186 12.47283691 10.6203186 12.47283691 11.5 13.6875 C12.10513428 14.51604492 12.71026855 15.34458984 13.33374023 16.19824219 C15.2277567 18.79504816 17.1147875 21.39679713 19 24 C19.60602051 24.83547363 20.21204102 25.67094727 20.83642578 26.53173828 C23.61658463 30.36610065 26.39213424 34.20374109 29.16015625 38.046875 C29.63598145 38.70623047 30.11180664 39.36558594 30.60205078 40.04492188 C31.54768525 41.3674229 32.48332755 42.6971167 33.40966797 44.03320312 C35.6955852 47.56013046 35.6955852 47.56013046 39 50 C39.32677734 48.98873047 39.32677734 48.98873047 39.66015625 47.95703125 C41.41328452 44.08788227 43.83884878 41.02757316 46.4375 37.6875 C50.66571507 32.15495124 54.76431558 26.56571069 58.6875 20.8125 C59.13528809 20.15725342 59.58307617 19.50200684 60.04443359 18.8269043 C61.81071728 16.23547422 63.57017732 13.6396436 65.31933594 11.03662109 C66.5619909 9.18759913 67.81197313 7.34370256 69.0625 5.5 C69.77535156 4.4378125 70.48820313 3.375625 71.22265625 2.28125 C71.80917969 1.5284375 72.39570312 0.775625 73 0 C73.66 0 74.32 0 75 0 C75 27.72 75 55.44 75 84 C71.37 84 67.74 84 64 84 C63.67 67.5 63.34 51 63 34 C55.10491395 45.15508096 55.10491395 45.15508096 47.30859375 56.37890625 C46.81939453 57.09111328 46.33019531 57.80332031 45.82617188 58.53710938 C44.85816559 59.94895539 43.89779807 61.36605621 42.94335938 62.78710938 C41.70368979 64.57885854 40.36082245 66.29843953 39 68 C38.01 68 37.02 68 36 68 C26.66558074 57.25800958 18.97530267 44.65621159 11 33 C11 49.83 11 66.66 11 84 C7.37 84 3.74 84 0 84 C0 56.28 0 28.56 0 0 Z " fill="#1A1A1A" transform="translate(722,644)"/>
<path d="M0 0 C0.63035156 0.46277344 1.26070313 0.92554688 1.91015625 1.40234375 C2.90015625 2.06234375 3.89015625 2.72234375 4.91015625 3.40234375 C4.62731607 5.17460828 4.33355127 6.94513175 4.03515625 8.71484375 C3.87273437 9.70097656 3.7103125 10.68710937 3.54296875 11.703125 C2.91015625 14.40234375 2.91015625 14.40234375 0.91015625 17.40234375 C-0.46547229 16.11269199 -1.79750768 14.77545082 -3.08984375 13.40234375 C-3.08984375 12.74234375 -3.08984375 12.08234375 -3.08984375 11.40234375 C-3.65316406 11.12519531 -4.21648437 10.84804688 -4.796875 10.5625 C-6.33009169 9.78674982 -7.84876739 8.98159334 -9.3515625 8.1484375 C-17.66254392 3.66505783 -24.41441104 2.46841211 -33.66796875 4.609375 C-42.78402461 7.59414813 -48.57527289 14.00390266 -53.07421875 22.21875 C-56.52902904 29.64659212 -56.0241687 38.50181602 -53.52734375 46.15234375 C-49.96280578 54.77181885 -44.81185756 59.59447907 -36.421875 63.4921875 C-26.76826305 67.25984509 -17.78379636 65.10763285 -8.08984375 62.40234375 C-8.08984375 55.47234375 -8.08984375 48.54234375 -8.08984375 41.40234375 C-15.34984375 41.40234375 -22.60984375 41.40234375 -30.08984375 41.40234375 C-30.08984375 38.10234375 -30.08984375 34.80234375 -30.08984375 31.40234375 C-19.19984375 31.40234375 -8.30984375 31.40234375 2.91015625 31.40234375 C3.14051326 36.56745993 3.3390827 41.71468538 3.45947266 46.88085938 C3.50963876 48.63505484 3.57779635 50.38883459 3.66455078 52.14160156 C4.36832237 66.7303727 4.36832237 66.7303727 0.75390625 70.87475586 C-1.84096999 72.44856154 -4.20023634 73.4979563 -7.08984375 74.40234375 C-8.16234375 74.83546875 -9.23484375 75.26859375 -10.33984375 75.71484375 C-24.17095546 78.25054756 -36.99317112 78.21279379 -49.08984375 70.40234375 C-59.60867947 62.51711283 -65.33282228 53.95537261 -67.6796875 40.984375 C-69.10161025 28.56624968 -66.17845295 17.75575519 -58.90234375 7.58984375 C-44.28284971 -9.95991924 -18.40574996 -13.1278761 0 0 Z " fill="#1A1A1A" transform="translate(161.08984375,652.59765625)"/>
<path d="M0 0 C3.00152582 0.31167085 3.98389613 0.98327103 6.11328125 3.1953125 C16.37029071 16.85917946 22.04729123 29.59592385 21 47 C19.45033334 55.80991597 15.11862287 64.45940314 9 71 C8.34 71 7.68 71 7 71 C2.22638782 60.48351429 -0.01122541 49.46978521 -1 38 C-3.17126471 40.17126471 -2.30644902 45.21766745 -2.32788086 48.20996094 C-2.21669099 56.15609659 -0.21547026 63.41935477 2 71 C2.34130826 72.33131422 2.6793872 73.66355085 3 75 C-3.76487633 74.57719523 -8.96376842 69.35475894 -13.3125 64.5625 C-19.65139203 56.75946172 -20.66920782 47.76033294 -20 38 C-18.08542537 24.84388626 -11.35608028 14.07279974 -3 4 C-1.99299253 2.67195116 -0.99090351 1.34010746 0 0 Z " fill="#1A1A1A" transform="translate(556,454)"/>
<path d="M0 0 C6.19935569 4.34954795 10.50593434 8.82956123 13 16 C13.495 22.435 13.495 22.435 14 29 C-0.52 29 -15.04 29 -30 29 C-25.82453976 37.46827609 -25.82453976 37.46827609 -18.6875 42.25 C-11.25357721 44.3245831 -6.6481434 42.75826724 -0.00390625 39.2890625 C2.13583218 38.15357283 2.13583218 38.15357283 3 36 C3.99 36.33 4.98 36.66 6 37 C6.66 40.63 7.32 44.26 8 48 C-1.89206096 53.07618918 -9.71177274 55.89848137 -20.984375 53.31640625 C-29.42011324 50.50837736 -34.76062887 46.82321696 -38.875 38.875 C-42.44546477 31.28480668 -43.23677359 23.61032658 -41 15.4375 C-38.39902075 8.55040001 -33.27487016 2.87829726 -26.75 -0.5 C-18.22083209 -4.30640551 -8.33992085 -4.35950408 0 0 Z M-30 17 C-30.33 17.99 -30.66 18.98 -31 20 C-19.78 20 -8.56 20 3 20 C-1.21611214 11.18123034 -1.21611214 11.18123034 -9 7 C-18.81137756 5.28906533 -24.32248543 9.37590901 -30 17 Z " fill="#1A1A1A" transform="translate(269,675)"/>
<path d="M0 0 C1.37222335 0.80325269 2.73472399 1.62522993 4.0625 2.5 C4.3925 0.85 4.7225 -0.8 5.0625 -2.5 C8.3625 -2.5 11.6625 -2.5 15.0625 -2.5 C15.0625 15.65 15.0625 33.8 15.0625 52.5 C11.7625 52.5 8.4625 52.5 5.0625 52.5 C4.7325 50.85 4.4025 49.2 4.0625 47.5 C3.47082031 47.84933594 2.87914062 48.19867187 2.26953125 48.55859375 C1.47933594 49.01363281 0.68914063 49.46867188 -0.125 49.9375 C-0.90230469 50.38996094 -1.67960938 50.84242188 -2.48046875 51.30859375 C-9.51621991 54.720206 -17.11370875 54.0256746 -24.375 51.66796875 C-32.11881787 48.13839323 -36.80057188 42.21161496 -39.9375 34.5 C-42.45734536 26.94046393 -41.48696474 18.89884028 -38.1875 11.75 C-30.47600179 -2.13069678 -14.52122549 -7.20911904 0 0 Z M-24.6875 11.875 C-29.25487182 17.20360046 -30.56060501 20.66050387 -30.3515625 27.7109375 C-29.46523045 33.68113641 -26.47267437 37.30256399 -21.8125 40.9375 C-17.30024579 43.38981207 -14.05201942 43.9192229 -8.9375 43.5 C-3.04852975 41.5444596 0.53048614 38.53044398 4.0625 33.5 C5.88315999 28.03802003 6.27318049 22.22199975 3.8984375 16.8828125 C0.74638627 11.95268109 -2.1367075 8.40529273 -8.00390625 7.0078125 C-14.81320554 5.87869011 -19.38717253 7.29744446 -24.6875 11.875 Z " fill="#1A1A1A" transform="translate(858.9375,675.5)"/>
<path d="M0 0 C7.04133662 4.94029263 11.28955656 10.29852186 13.75 18.5 C14.09836172 21.98361717 14 25.49900808 14 29 C-0.52 29 -15.04 29 -30 29 C-25.82453976 37.46827609 -25.82453976 37.46827609 -18.6875 42.25 C-11.25357721 44.3245831 -6.6481434 42.75826724 -0.00390625 39.2890625 C2.13583218 38.15357283 2.13583218 38.15357283 3 36 C3.99 36.33 4.98 36.66 6 37 C6.66 40.63 7.32 44.26 8 48 C-1.89206096 53.07618918 -9.71177274 55.89848137 -20.984375 53.31640625 C-29.42011324 50.50837736 -34.76062887 46.82321696 -38.875 38.875 C-42.3885843 31.40572477 -43.22806858 24.28541631 -40.75 16.3125 C-37.98629536 8.9211969 -33.72847049 3.51148865 -26.7421875 -0.19921875 C-17.89363759 -4.15194089 -8.73540178 -4.56623275 0 0 Z M-27.8125 14.0625 C-30.12175508 16.84361837 -30.12175508 16.84361837 -31 20 C-19.78 20 -8.56 20 3 20 C-0.02713077 12.93669487 -2.14341701 9.93496722 -9 7 C-17.26519622 5.82705136 -22.29867209 7.78112218 -27.8125 14.0625 Z " fill="#1A1A1A" transform="translate(535,675)"/>
<path d="M0 0 C5.16785182 3.82607024 8.15298042 9.96284751 10.14453125 15.9375 C10.21308075 17.83220816 10.22933497 19.7291834 10.20703125 21.625 C10.19800781 22.61886719 10.18898438 23.61273437 10.1796875 24.63671875 C10.16808594 25.39597656 10.15648437 26.15523437 10.14453125 26.9375 C4.19971013 26.96217203 -1.74508135 26.98034663 -7.68994141 26.99243164 C-9.71338418 26.99746831 -11.73682331 27.00429789 -13.76025391 27.01293945 C-16.66439718 27.02503412 -19.56849244 27.03073488 -22.47265625 27.03515625 C-23.38103241 27.04031754 -24.28940857 27.04547882 -25.22531128 27.05079651 C-26.0660318 27.05087204 -26.90675232 27.05094757 -27.77294922 27.05102539 C-28.51463348 27.053246 -29.25631775 27.05546661 -30.02047729 27.05775452 C-31.85546875 26.9375 -31.85546875 26.9375 -33.85546875 25.9375 C-30.18759924 34.48620961 -30.18759924 34.48620961 -22.85546875 39.9375 C-18.00169292 41.81638097 -13.06860262 41.35582202 -8.23046875 39.6875 C-5.06176769 38.04446982 -2.59120597 36.2042537 0.14453125 33.9375 C0.80453125 33.9375 1.46453125 33.9375 2.14453125 33.9375 C3.43696661 38.0571377 4.4070575 41.60581683 4.14453125 45.9375 C-5.11559376 51.49357501 -13.8199929 53.819582 -24.640625 51.28515625 C-32.52951809 48.44417929 -38.56712407 43.66882632 -42.85546875 36.4375 C-46.12005078 29.18902125 -46.18947089 20.76563971 -44.0859375 13.15234375 C-40.86592206 5.46792442 -36.20308955 0.73608132 -28.85546875 -3.0625 C-18.70968288 -6.93634552 -9.33455894 -5.34526322 0 0 Z M-30.3984375 10.69140625 C-33.0055169 13.974417 -33.0055169 13.974417 -33.85546875 17.9375 C-22.96546875 17.9375 -12.07546875 17.9375 -0.85546875 17.9375 C-2.56434566 12.19123167 -2.56434566 12.19123167 -6.29296875 8.625 C-6.88980469 8.13386719 -7.48664063 7.64273438 -8.1015625 7.13671875 C-15.35784356 2.17529718 -24.87074703 4.40803152 -30.3984375 10.69140625 Z " fill="#1A1A1A" transform="translate(1041.85546875,677.0625)"/>
<path d="M0 0 C5.83282724 6.33278386 9.36350493 12.9986256 9.25 21.625 C9.24097656 22.51703125 9.23195313 23.4090625 9.22265625 24.328125 C9.21105469 25.00359375 9.19945312 25.6790625 9.1875 26.375 C3.24267888 26.39967203 -2.7021126 26.41784663 -8.64697266 26.42993164 C-10.67041543 26.43496831 -12.69385456 26.44179789 -14.71728516 26.45043945 C-17.62142843 26.46253412 -20.52552369 26.46823488 -23.4296875 26.47265625 C-24.33806366 26.47781754 -25.24643982 26.48297882 -26.18234253 26.48829651 C-27.02306305 26.48837204 -27.86378357 26.48844757 -28.72998047 26.48852539 C-29.47166473 26.490746 -30.213349 26.49296661 -30.97750854 26.49525452 C-32.8125 26.375 -32.8125 26.375 -34.8125 25.375 C-32.53474885 31.86871291 -30.14340356 36.26508246 -23.8125 39.375 C-17.19845588 41.37847744 -11.91533619 40.53943358 -5.8125 37.375 C-4.12772656 36.06462066 -2.45601457 34.73676922 -0.8125 33.375 C-0.1525 33.375 0.5075 33.375 1.1875 33.375 C2.49242469 37.53444744 3.30769705 41.02536909 3.1875 45.375 C1.77421871 46.19337442 0.35671654 47.00446219 -1.0625 47.8125 C-1.85140625 48.26496094 -2.6403125 48.71742188 -3.453125 49.18359375 C-10.52693557 52.75563386 -19.96153727 52.44326955 -27.5 50.4375 C-34.49680236 47.68783413 -40.85396096 41.90975738 -44.4375 35.3125 C-47.03680105 28.28200955 -47.13751491 18.93142882 -45.046875 11.7421875 C-44.11105458 9.78884805 -43.09290184 8.11776917 -41.8125 6.375 C-41.235 5.488125 -40.6575 4.60125 -40.0625 3.6875 C-28.57175183 -8.12243562 -13.62441251 -7.87188279 0 0 Z M-32.1875 10.875 C-34.06647873 13.46905051 -34.06647873 13.46905051 -34.8125 17.375 C-23.9225 17.375 -13.0325 17.375 -1.8125 17.375 C-3.52137691 11.62873167 -3.52137691 11.62873167 -7.25 8.0625 C-7.84683594 7.57136719 -8.44367188 7.08023438 -9.05859375 6.57421875 C-17.0030297 1.14227702 -26.14717269 4.51676073 -32.1875 10.875 Z " fill="#1A1A1A" transform="translate(342.8125,677.625)"/>
<path d="M0 0 C5.22281295 2.2970317 5.22281295 2.2970317 7.05859375 4.1328125 C7.38859375 2.4828125 7.71859375 0.8328125 8.05859375 -0.8671875 C11.35859375 -0.8671875 14.65859375 -0.8671875 18.05859375 -0.8671875 C18.05859375 17.2828125 18.05859375 35.4328125 18.05859375 54.1328125 C14.75859375 54.1328125 11.45859375 54.1328125 8.05859375 54.1328125 C8.05859375 52.4828125 8.05859375 50.8328125 8.05859375 49.1328125 C7.46433594 49.48214844 6.87007812 49.83148437 6.2578125 50.19140625 C-1.82106014 54.62661938 -9.1314886 56.39633624 -18.19140625 54.0078125 C-27.34479485 50.74909029 -31.58205883 45.76373523 -35.94140625 37.1328125 C-38.34487013 29.92242085 -38.12011458 20.5555699 -34.94140625 13.6328125 C-27.46377006 0.90176618 -14.24259153 -4.19901105 0 0 Z M-22.31640625 14.3828125 C-25.83183664 18.95191412 -27.24364454 23.43307301 -26.81640625 29.1953125 C-25.66742516 36.0363723 -21.32363577 40.20827014 -15.94140625 44.1328125 C-14.03431782 45.04709589 -14.03431782 45.04709589 -11.94140625 45.1328125 C-10.86890625 45.2359375 -9.79640625 45.3390625 -8.69140625 45.4453125 C-3.33168531 44.99866909 0.93694985 43.43780834 4.640625 39.4140625 C8.75054476 33.8236241 9.68401287 29.00062241 9.05859375 22.1328125 C6.94883093 15.80352405 2.22675762 11.79232691 -3.56640625 8.7578125 C-10.68277391 6.88508417 -17.35257636 8.98206849 -22.31640625 14.3828125 Z " fill="#1A1A1A" transform="translate(599.94140625,673.8671875)"/>
<path d="M0 0 C4.73943935 3.98543764 8.80585315 8.80647132 10 15 C10.08378506 17.90959378 10.11617895 20.79421241 10.09765625 23.703125 C10.0962413 24.54091492 10.09482635 25.37870483 10.09336853 26.24188232 C10.08778197 28.91129157 10.07523194 31.5806162 10.0625 34.25 C10.05748326 36.06249879 10.05292066 37.87499889 10.04882812 39.6875 C10.03781694 44.12503248 10.02056155 48.56250191 10 53 C6.7 53 3.4 53 0 53 C-0.029729 51.6996582 -0.029729 51.6996582 -0.06005859 50.37304688 C-0.13867307 47.12249032 -0.2253817 43.87227343 -0.31738281 40.62207031 C-0.35540313 39.22176265 -0.39030034 37.82136626 -0.421875 36.42089844 C-0.2334812 22.03785359 -0.2334812 22.03785359 -7 10 C-10.62694708 7.78353234 -13.82023923 7.70628789 -18.00390625 8.41015625 C-21.65179849 9.48810484 -23.51807275 11.16351171 -26 14 C-28.43641478 22.04524463 -28.43583569 30.22449179 -28.625 38.5625 C-28.6632657 39.96681881 -28.70232212 41.37111631 -28.7421875 42.77539062 C-28.83588029 46.18346604 -28.92160074 49.59154423 -29 53 C-32.3 53 -35.6 53 -39 53 C-39 34.85 -39 16.7 -39 -2 C-35.7 -2 -32.4 -2 -29 -2 C-28.67 -0.35 -28.34 1.3 -28 3 C-27.46890625 2.65066406 -26.9378125 2.30132813 -26.390625 1.94140625 C-25.33101563 1.25884766 -25.33101563 1.25884766 -24.25 0.5625 C-23.55390625 0.11003906 -22.8578125 -0.34242188 -22.140625 -0.80859375 C-15.12803718 -4.71158515 -6.86203669 -3.68926704 0 0 Z " fill="#1A1A1A" transform="translate(409,675)"/>
<path d="M0 0 C-0.14107747 1.45880109 -0.28802415 2.91703551 -0.4375 4.375 C-0.51871094 5.18710937 -0.59992187 5.99921875 -0.68359375 6.8359375 C-1 9 -1 9 -2 11 C-2.495 10.690625 -2.99 10.38125 -3.5 10.0625 C-7.0686245 8.54583459 -10.11569932 8.24662227 -14 8 C-17.24849977 9.72226496 -17.24849977 9.72226496 -18 13 C-18.14492123 14.40664926 -18.24628931 15.8181133 -18.31640625 17.23046875 C-18.35830078 18.03291016 -18.40019531 18.83535156 -18.44335938 19.66210938 C-18.48267578 20.49548828 -18.52199219 21.32886719 -18.5625 22.1875 C-18.60568359 23.03248047 -18.64886719 23.87746094 -18.69335938 24.74804688 C-18.79931518 26.83184433 -18.9001502 28.91590103 -19 31 C-14.71 31 -10.42 31 -6 31 C-6 33.97 -6 36.94 -6 40 C-10.29 40 -14.58 40 -19 40 C-19 55.18 -19 70.36 -19 86 C-22.3 86 -25.6 86 -29 86 C-29 70.82 -29 55.64 -29 40 C-33.29 40 -37.58 40 -42 40 C-42 37.03 -42 34.06 -42 31 C-37.71 31 -33.42 31 -29 31 C-29.04640625 29.56527344 -29.0928125 28.13054688 -29.140625 26.65234375 C-29.17816051 24.74741675 -29.21455875 22.84246711 -29.25 20.9375 C-29.28351562 19.99455078 -29.31703125 19.05160156 -29.3515625 18.08007812 C-29.43922343 11.79040639 -28.74836153 8.10773142 -25 3 C-17.38052384 -2.90898152 -8.92452542 -3.75769491 0 0 Z " fill="#1A1A1A" transform="translate(676,642)"/>
<path d="M0 0 C3.63 0 7.26 0 11 0 C11 23.76 11 47.52 11 72 C20.24 72 29.48 72 39 72 C39 75.3 39 78.6 39 82 C26.13 82 13.26 82 0 82 C0 54.94 0 27.88 0 0 Z " fill="#1A1A1A" transform="translate(443,646)"/>
<path d="M0 0 C3.63 0 7.26 0 11 0 C11 5.94 11 11.88 11 18 C15.29 18 19.58 18 24 18 C24 20.97 24 23.94 24 27 C19.71 27 15.42 27 11 27 C11 42.18 11 57.36 11 73 C7.37 73 3.74 73 0 73 C0 57.82 0 42.64 0 27 C-3.96 27 -7.92 27 -12 27 C-12 24.03 -12 21.06 -12 18 C-8.04 18 -4.08 18 0 18 C0 12.06 0 6.12 0 0 Z " fill="#1A1A1A" transform="translate(1076,655)"/>
<path d="M0 0 C3.3 0 6.6 0 10 0 C10 28.71 10 57.42 10 87 C6.7 87 3.4 87 0 87 C0 58.29 0 29.58 0 0 Z " fill="#1B1B1B" transform="translate(942,641)"/>
<path d="M0 0 C3.3 0 6.6 0 10 0 C10.33 1.98 10.66 3.96 11 6 C11.47050781 5.65066406 11.94101562 5.30132813 12.42578125 4.94140625 C13.04839844 4.48636719 13.67101562 4.03132812 14.3125 3.5625 C14.92738281 3.11003906 15.54226563 2.65757812 16.17578125 2.19140625 C19.18116794 0.2285734 21.69392982 -0.11977164 25.1875 -0.0625 C27.0746875 -0.0315625 27.0746875 -0.0315625 29 0 C29.66 3.3 30.32 6.6 31 10 C29.78763672 10.14695312 29.78763672 10.14695312 28.55078125 10.296875 C20.316309 11.1842512 20.316309 11.1842512 14 16 C10.17950836 23.72048222 10.45061827 32.15318426 10.3125 40.5625 C10.27926052 41.9668274 10.24476495 43.37112567 10.20898438 44.77539062 C10.12700205 48.18351308 10.05768655 51.59139425 10 55 C6.7 55 3.4 55 0 55 C0 36.85 0 18.7 0 0 Z " fill="#1A1A1A" transform="translate(896,673)"/>
<path d="M0 0 C3.3 0 6.6 0 10 0 C10.33 1.98 10.66 3.96 11 6 C11.47050781 5.65066406 11.94101563 5.30132813 12.42578125 4.94140625 C13.04839844 4.48636719 13.67101562 4.03132812 14.3125 3.5625 C14.92738281 3.11003906 15.54226562 2.65757812 16.17578125 2.19140625 C19.18116794 0.2285734 21.69392982 -0.11977164 25.1875 -0.0625 C27.0746875 -0.0315625 27.0746875 -0.0315625 29 0 C29.66 3.3 30.32 6.6 31 10 C29.78763672 10.14695312 29.78763672 10.14695312 28.55078125 10.296875 C20.316309 11.1842512 20.316309 11.1842512 14 16 C10.17950836 23.72048222 10.45061827 32.15318426 10.3125 40.5625 C10.27926052 41.9668274 10.24476495 43.37112567 10.20898438 44.77539062 C10.12700205 48.18351308 10.05768655 51.59139425 10 55 C6.7 55 3.4 55 0 55 C0 36.85 0 18.7 0 0 Z " fill="#1A1A1A" transform="translate(187,673)"/>
<path d="M0 0 C-2.47525025 4.52936417 -5.61472002 8.20704224 -9 12.0625 C-10.56344885 13.85442386 -12.12380575 15.64838121 -13.671875 17.45361328 C-14.74855153 18.70722893 -15.84073149 19.94751795 -16.9375 21.18359375 C-18.21067849 22.92956265 -18.21067849 22.92956265 -17.73266602 24.90600586 C-16.92160995 27.22404248 -15.97519192 28.49966264 -14.33984375 30.3203125 C-13.79682617 30.93358398 -13.25380859 31.54685547 -12.69433594 32.17871094 C-12.11458008 32.82098633 -11.53482422 33.46326172 -10.9375 34.125 C-9.75257109 35.46496634 -8.56897771 36.80611486 -7.38671875 38.1484375 C-6.80841309 38.80295898 -6.23010742 39.45748047 -5.63427734 40.13183594 C3.53950121 50.61850362 3.53950121 50.61850362 5 55 C0.08897332 55.90334213 -4.11076284 56.12557978 -9 55 C-12.97581294 51.47061256 -15.65587948 47.42542715 -18.57324219 43.01513672 C-21.45805146 38.94066448 -24.95960714 35.33506993 -28.38134766 31.70849609 C-31.94592755 27.72940277 -31.94592755 27.72940277 -32.18359375 24.5234375 C-30.4702593 20.87058583 -28.01553438 18.15507982 -25.3125 15.1875 C-21.8188495 11.30657083 -18.6915547 7.66093079 -16.0625 3.125 C-12.3839656 -2.13004914 -5.69478619 -0.60834511 0 0 Z " fill="#1A1A1A" transform="translate(985,673)"/>
</svg>
